<svg xmlns="http://www.w3.org/2000/svg" viewBox="0 0 568 690" font-family="system-ui,sans-serif" font-size="13">
<rect width="568" height="690" fill="#fbfbf8"/>
<polygon points="120.0,570.0 448.0,570.0 448.0,282.0 336.0,170.0 120.0,170.0" fill="#8fa3b8" stroke="#2b5d8a" stroke-width="1.5"/>
<polygon points="129.6,560.4 438.4,560.4 438.4,286.0 332.0,179.6 129.6,179.6" fill="#fbfbf8" stroke="#2b5d8a" stroke-width="1.2"/>
<polygon points="134.4,560.4 438.4,560.4 438.4,432.4 134.4,432.4" fill="#e7dcf5" stroke="#6a3d9a" stroke-width="1.8"/>
<text x="286.4" y="493.4" text-anchor="middle" fill="#6a3d9a" font-size="11" font-weight="bold">lit 80 × 190</text>
<text x="286.4" y="506.4" text-anchor="middle" fill="#6a3d9a" font-size="9" font-weight="normal">pied sous le bureau</text>
<polygon points="438.4,560.4 438.4,432.4 398.4,432.4 398.4,560.4" fill="#d4c4ee" stroke="#6a3d9a" stroke-width="1"/>
<polygon points="129.6,560.4 257.6,560.4 257.6,179.6 129.6,179.6" fill="#e6c79c" stroke="#9a7040" stroke-width="1"/>
<text x="193.6" y="370.0" text-anchor="middle" dominant-baseline="middle" fill="#7a5530" font-size="12" font-weight="bold" transform="rotate(-90 193.6 370.0)">bureau 80 × 238</text>
<polygon points="380.0,227.6 332.0,179.6 129.6,179.6 129.6,227.6" fill="#e6c79c" stroke="#9a7040" stroke-width="1"/>
<text x="242.8" y="203.6" text-anchor="middle" dominant-baseline="middle" fill="#7a5530" font-size="12" font-weight="bold">bureau 42.4 × 126.5</text>
<polygon points="161.6,259.6 161.6,371.6 273.6,371.6 273.6,259.6" fill="#dcdce6" stroke="#55556a" stroke-width="1.2"/>
<text x="217.6" y="311.6" text-anchor="middle" fill="#44445a" font-size="10" font-weight="bold">fauteuil de bureau</text>
<text x="217.6" y="325.6" text-anchor="middle" fill="#44445a" font-size="9" font-weight="normal">70 × 70</text>
<polygon points="136.0,371.6 136.0,419.6 184.0,419.6 184.0,371.6" fill="#dcdce6" stroke="#55556a" stroke-width="1.2"/>
<text x="160.0" y="398.6" text-anchor="middle" fill="#44445a" font-size="8" font-weight="bold">tab.</text>
<polygon points="136.0,570.0 264.0,570.0 264.0,560.4 136.0,560.4" fill="#bfe3ef" stroke="#1b9aa8" stroke-width="1.5"/>
<polygon points="296.0,570.0 424.0,570.0 424.0,560.4 296.0,560.4" fill="#bfe3ef" stroke="#1b9aa8" stroke-width="1.5"/>
<line x1="120.0" y1="574.0" x2="120.0" y2="602.0" stroke="#aaa" stroke-width="0.7"/>
<line x1="136.0" y1="574.0" x2="136.0" y2="602.0" stroke="#aaa" stroke-width="0.7"/>
<line x1="120.0" y1="598.0" x2="136.0" y2="598.0" stroke="#666" stroke-width="1"/>
<line x1="117.0" y1="601.0" x2="123.0" y2="595.0" stroke="#666" stroke-width="1"/>
<line x1="133.0" y1="601.0" x2="139.0" y2="595.0" stroke="#666" stroke-width="1"/>
<text x="128.0" y="618.0" text-anchor="middle" dominant-baseline="middle" fill="#666" font-size="10" font-weight="bold" transform="rotate(0.0 128.0 618.0)">10</text>
<line x1="136.0" y1="574.0" x2="136.0" y2="602.0" stroke="#aaa" stroke-width="0.7"/>
<line x1="264.0" y1="574.0" x2="264.0" y2="602.0" stroke="#aaa" stroke-width="0.7"/>
<line x1="136.0" y1="598.0" x2="264.0" y2="598.0" stroke="#666" stroke-width="1"/>
<line x1="133.0" y1="601.0" x2="139.0" y2="595.0" stroke="#666" stroke-width="1"/>
<line x1="261.0" y1="601.0" x2="267.0" y2="595.0" stroke="#666" stroke-width="1"/>
<text x="200.0" y="606.0" text-anchor="middle" dominant-baseline="middle" fill="#666" font-size="10" font-weight="bold" transform="rotate(0.0 200.0 606.0)">80</text>
<line x1="264.0" y1="574.0" x2="264.0" y2="602.0" stroke="#aaa" stroke-width="0.7"/>
<line x1="296.0" y1="574.0" x2="296.0" y2="602.0" stroke="#aaa" stroke-width="0.7"/>
<line x1="264.0" y1="598.0" x2="296.0" y2="598.0" stroke="#666" stroke-width="1"/>
<line x1="261.0" y1="601.0" x2="267.0" y2="595.0" stroke="#666" stroke-width="1"/>
<line x1="293.0" y1="601.0" x2="299.0" y2="595.0" stroke="#666" stroke-width="1"/>
<text x="280.0" y="606.0" text-anchor="middle" dominant-baseline="middle" fill="#666" font-size="10" font-weight="bold" transform="rotate(0.0 280.0 606.0)">20</text>
<line x1="296.0" y1="574.0" x2="296.0" y2="602.0" stroke="#aaa" stroke-width="0.7"/>
<line x1="424.0" y1="574.0" x2="424.0" y2="602.0" stroke="#aaa" stroke-width="0.7"/>
<line x1="296.0" y1="598.0" x2="424.0" y2="598.0" stroke="#666" stroke-width="1"/>
<line x1="293.0" y1="601.0" x2="299.0" y2="595.0" stroke="#666" stroke-width="1"/>
<line x1="421.0" y1="601.0" x2="427.0" y2="595.0" stroke="#666" stroke-width="1"/>
<text x="360.0" y="606.0" text-anchor="middle" dominant-baseline="middle" fill="#666" font-size="10" font-weight="bold" transform="rotate(0.0 360.0 606.0)">80</text>
<line x1="424.0" y1="574.0" x2="424.0" y2="602.0" stroke="#aaa" stroke-width="0.7"/>
<line x1="448.0" y1="574.0" x2="448.0" y2="602.0" stroke="#aaa" stroke-width="0.7"/>
<line x1="424.0" y1="598.0" x2="448.0" y2="598.0" stroke="#666" stroke-width="1"/>
<line x1="421.0" y1="601.0" x2="427.0" y2="595.0" stroke="#666" stroke-width="1"/>
<line x1="445.0" y1="601.0" x2="451.0" y2="595.0" stroke="#666" stroke-width="1"/>
<text x="436.0" y="606.0" text-anchor="middle" dominant-baseline="middle" fill="#666" font-size="10" font-weight="bold" transform="rotate(0.0 436.0 606.0)">15</text>
<line x1="120.0" y1="574.0" x2="120.0" y2="632.0" stroke="#aaa" stroke-width="0.7"/>
<line x1="448.0" y1="574.0" x2="448.0" y2="632.0" stroke="#aaa" stroke-width="0.7"/>
<line x1="120.0" y1="628.0" x2="448.0" y2="628.0" stroke="#2b5d8a" stroke-width="1"/>
<line x1="117.0" y1="631.0" x2="123.0" y2="625.0" stroke="#2b5d8a" stroke-width="1"/>
<line x1="445.0" y1="631.0" x2="451.0" y2="625.0" stroke="#2b5d8a" stroke-width="1"/>
<text x="284.0" y="636.0" text-anchor="middle" dominant-baseline="middle" fill="#2b5d8a" font-size="12" font-weight="bold" transform="rotate(0.0 284.0 636.0)">A · 205</text>
<polygon points="448.0,426.8 448.0,418.8 438.4,418.8 438.4,426.8" fill="#b98a55" stroke="#7a5530" stroke-width="1"/>
<polygon points="448.0,302.0 448.0,294.0 438.4,294.0 438.4,302.0" fill="#b98a55" stroke="#7a5530" stroke-width="1"/>
<polygon points="448.0,418.8 448.0,302.0 438.4,302.0 438.4,418.8" fill="#fbfbf8" stroke="#c0392b" stroke-width="1.5"/>
<line x1="448.0" y1="302.0" x2="564.8" y2="302.0" stroke="#c0392b" stroke-width="2"/>
<polyline points="448.0,418.8 459.4,418.2 470.8,416.6 481.9,413.8 492.7,409.9 503.1,405.0 512.9,399.1 522.1,392.3 530.6,384.6 538.3,376.1 545.1,366.9 551.0,357.1 555.9,346.7 559.8,335.9 562.6,324.8 564.2,313.4 564.8,302.0" fill="none" stroke="#c0392b" stroke-width="1" stroke-dasharray="4 3"/>
<line x1="452.0" y1="570.0" x2="480.0" y2="570.0" stroke="#aaa" stroke-width="0.7"/>
<line x1="452.0" y1="426.8" x2="480.0" y2="426.8" stroke="#aaa" stroke-width="0.7"/>
<line x1="476.0" y1="570.0" x2="476.0" y2="426.8" stroke="#666" stroke-width="1"/>
<line x1="479.0" y1="573.0" x2="473.0" y2="567.0" stroke="#666" stroke-width="1"/>
<line x1="479.0" y1="429.8" x2="473.0" y2="423.8" stroke="#666" stroke-width="1"/>
<text x="484.0" y="498.4" text-anchor="middle" dominant-baseline="middle" fill="#666" font-size="10" font-weight="bold" transform="rotate(-90.0 484.0 498.4)">89.5</text>
<line x1="452.0" y1="426.8" x2="480.0" y2="426.8" stroke="#aaa" stroke-width="0.7"/>
<line x1="452.0" y1="418.8" x2="480.0" y2="418.8" stroke="#aaa" stroke-width="0.7"/>
<line x1="476.0" y1="426.8" x2="476.0" y2="418.8" stroke="#666" stroke-width="1"/>
<line x1="479.0" y1="429.8" x2="473.0" y2="423.8" stroke="#666" stroke-width="1"/>
<line x1="479.0" y1="421.8" x2="473.0" y2="415.8" stroke="#666" stroke-width="1"/>
<text x="496.0" y="422.8" text-anchor="middle" dominant-baseline="middle" fill="#666" font-size="10" font-weight="bold" transform="rotate(-90.0 496.0 422.8)">5</text>
<line x1="452.0" y1="418.8" x2="480.0" y2="418.8" stroke="#aaa" stroke-width="0.7"/>
<line x1="452.0" y1="302.0" x2="480.0" y2="302.0" stroke="#aaa" stroke-width="0.7"/>
<line x1="476.0" y1="418.8" x2="476.0" y2="302.0" stroke="#666" stroke-width="1"/>
<line x1="479.0" y1="421.8" x2="473.0" y2="415.8" stroke="#666" stroke-width="1"/>
<line x1="479.0" y1="305.0" x2="473.0" y2="299.0" stroke="#666" stroke-width="1"/>
<text x="484.0" y="360.4" text-anchor="middle" dominant-baseline="middle" fill="#666" font-size="10" font-weight="bold" transform="rotate(-90.0 484.0 360.4)">73</text>
<line x1="452.0" y1="302.0" x2="480.0" y2="302.0" stroke="#aaa" stroke-width="0.7"/>
<line x1="452.0" y1="294.0" x2="480.0" y2="294.0" stroke="#aaa" stroke-width="0.7"/>
<line x1="476.0" y1="302.0" x2="476.0" y2="294.0" stroke="#666" stroke-width="1"/>
<line x1="479.0" y1="305.0" x2="473.0" y2="299.0" stroke="#666" stroke-width="1"/>
<line x1="479.0" y1="297.0" x2="473.0" y2="291.0" stroke="#666" stroke-width="1"/>
<text x="484.0" y="298.0" text-anchor="middle" dominant-baseline="middle" fill="#666" font-size="10" font-weight="bold" transform="rotate(-90.0 484.0 298.0)">5</text>
<line x1="452.0" y1="294.0" x2="480.0" y2="294.0" stroke="#aaa" stroke-width="0.7"/>
<line x1="452.0" y1="282.0" x2="480.0" y2="282.0" stroke="#aaa" stroke-width="0.7"/>
<line x1="476.0" y1="294.0" x2="476.0" y2="282.0" stroke="#666" stroke-width="1"/>
<line x1="479.0" y1="297.0" x2="473.0" y2="291.0" stroke="#666" stroke-width="1"/>
<line x1="479.0" y1="285.0" x2="473.0" y2="279.0" stroke="#666" stroke-width="1"/>
<text x="496.0" y="288.0" text-anchor="middle" dominant-baseline="middle" fill="#666" font-size="10" font-weight="bold" transform="rotate(-90.0 496.0 288.0)">7.5</text>
<line x1="452.0" y1="570.0" x2="510.0" y2="570.0" stroke="#aaa" stroke-width="0.7"/>
<line x1="452.0" y1="282.0" x2="510.0" y2="282.0" stroke="#aaa" stroke-width="0.7"/>
<line x1="506.0" y1="570.0" x2="506.0" y2="282.0" stroke="#2b5d8a" stroke-width="1"/>
<line x1="509.0" y1="573.0" x2="503.0" y2="567.0" stroke="#2b5d8a" stroke-width="1"/>
<line x1="509.0" y1="285.0" x2="503.0" y2="279.0" stroke="#2b5d8a" stroke-width="1"/>
<text x="514.0" y="426.0" text-anchor="middle" dominant-baseline="middle" fill="#2b5d8a" font-size="12" font-weight="bold" transform="rotate(-90.0 514.0 426.0)">D · 180</text>
<line x1="450.8" y1="279.2" x2="472.0" y2="258.0" stroke="#aaa" stroke-width="0.7"/>
<line x1="338.8" y1="167.2" x2="360.0" y2="146.0" stroke="#aaa" stroke-width="0.7"/>
<line x1="469.2" y1="260.8" x2="357.2" y2="148.8" stroke="#2b5d8a" stroke-width="1"/>
<line x1="473.5" y1="260.8" x2="465.0" y2="260.8" stroke="#2b5d8a" stroke-width="1"/>
<line x1="361.5" y1="148.8" x2="353.0" y2="148.8" stroke="#2b5d8a" stroke-width="1"/>
<text x="418.9" y="199.1" text-anchor="middle" dominant-baseline="middle" fill="#2b5d8a" font-size="12" font-weight="bold" transform="rotate(45.0 418.9 199.1)">C · 99</text>
<line x1="336.0" y1="166.0" x2="336.0" y2="136.0" stroke="#aaa" stroke-width="0.7"/>
<line x1="120.0" y1="166.0" x2="120.0" y2="136.0" stroke="#aaa" stroke-width="0.7"/>
<line x1="336.0" y1="140.0" x2="120.0" y2="140.0" stroke="#2b5d8a" stroke-width="1"/>
<line x1="339.0" y1="137.0" x2="333.0" y2="143.0" stroke="#2b5d8a" stroke-width="1"/>
<line x1="123.0" y1="137.0" x2="117.0" y2="143.0" stroke="#2b5d8a" stroke-width="1"/>
<text x="228.0" y="132.0" text-anchor="middle" dominant-baseline="middle" fill="#2b5d8a" font-size="12" font-weight="bold" transform="rotate(0.0 228.0 132.0)">B · 135</text>
<line x1="116.0" y1="170.0" x2="86.0" y2="170.0" stroke="#aaa" stroke-width="0.7"/>
<line x1="116.0" y1="570.0" x2="86.0" y2="570.0" stroke="#aaa" stroke-width="0.7"/>
<line x1="90.0" y1="170.0" x2="90.0" y2="570.0" stroke="#2b5d8a" stroke-width="1"/>
<line x1="87.0" y1="167.0" x2="93.0" y2="173.0" stroke="#2b5d8a" stroke-width="1"/>
<line x1="87.0" y1="567.0" x2="93.0" y2="573.0" stroke="#2b5d8a" stroke-width="1"/>
<text x="82.0" y="370.0" text-anchor="middle" dominant-baseline="middle" fill="#2b5d8a" font-size="12" font-weight="bold" transform="rotate(90.0 82.0 370.0)">G · 250</text>
<text x="222.2" y="548.4" text-anchor="middle" dominant-baseline="middle" fill="#888" font-size="10" transform="rotate(0.0 222.2 548.4)">int. 193</text>
<text x="426.4" y="478.1" text-anchor="middle" dominant-baseline="middle" fill="#888" font-size="10" transform="rotate(-90.0 426.4 478.1)">int. 171.5</text>
<text x="398.0" y="262.6" text-anchor="middle" dominant-baseline="middle" fill="#888" font-size="10" transform="rotate(45.0 398.0 262.6)">int. 94</text>
<text x="160.0" y="191.6" text-anchor="middle" dominant-baseline="middle" fill="#888" font-size="10" transform="rotate(0.0 160.0 191.6)">int. 126.5</text>
<text x="141.6" y="293.8" text-anchor="middle" dominant-baseline="middle" fill="#888" font-size="10" transform="rotate(90.0 141.6 293.8)">int. 238</text>
<text x="284.0" y="26.0" text-anchor="middle" fill="#222" font-size="15" font-weight="bold">Plan de sol · murs 4.88 m² · intérieur 4.37 m²</text>
<text x="284.0" y="46.0" text-anchor="middle" fill="#888" font-size="11" font-weight="normal">murs 6 cm · porte 73 ouvrant dehors · fenêtres en bleu · sol libre 1.72 m² · violet = lit à demeure</text>
<text x="284.0" y="678.0" text-anchor="middle" fill="#666" font-size="12" font-weight="normal">AVANT (jardin)</text>
</svg>
