<svg xmlns="http://www.w3.org/2000/svg" viewBox="0 0 553 686" font-family="system-ui,sans-serif" font-size="13">
<rect width="553" height="686" fill="#fbfbf8"/>
<polygon points="110.0,576.0 270.0,576.0 270.0,160.0 110.0,160.0" fill="#f3f0e8" stroke="#7a6f5a" stroke-width="1.5"/>
<text x="190.0" y="362.0" text-anchor="middle" fill="#5a4f3a" font-size="16" font-weight="bold">T1</text>
<text x="190.0" y="380.0" text-anchor="middle" fill="#5a4f3a" font-size="11" font-weight="normal">100 × 261.1</text>
<line x1="150.0" y1="576.0" x2="150.0" y2="160.0" stroke="#cfc6b3" stroke-width="1"/>
<line x1="190.0" y1="576.0" x2="190.0" y2="160.0" stroke="#cfc6b3" stroke-width="1"/>
<line x1="230.0" y1="576.0" x2="230.0" y2="160.0" stroke="#cfc6b3" stroke-width="1"/>
<polygon points="270.0,576.0 430.0,576.0 430.0,255.8 334.2,160.0 270.0,160.0" fill="#f3f0e8" stroke="#7a6f5a" stroke-width="1.5"/>
<text x="350.0" y="362.0" text-anchor="middle" fill="#5a4f3a" font-size="16" font-weight="bold">T2</text>
<text x="350.0" y="380.0" text-anchor="middle" fill="#5a4f3a" font-size="11" font-weight="normal">100 × 261.1</text>
<line x1="310.0" y1="576.0" x2="310.0" y2="160.0" stroke="#cfc6b3" stroke-width="1"/>
<line x1="350.0" y1="576.0" x2="350.0" y2="175.0" stroke="#cfc6b3" stroke-width="1"/>
<line x1="390.0" y1="576.0" x2="390.0" y2="215.0" stroke="#cfc6b3" stroke-width="1"/>
<polygon points="430.0,576.0 442.8,576.0 442.8,268.6 430.0,255.8" fill="#f3f0e8" stroke="#7a6f5a" stroke-width="1.5"/>
<text x="436.4" y="409.9" text-anchor="middle" fill="#5a4f3a" font-size="16" font-weight="bold">T3</text>
<text x="436.4" y="427.9" text-anchor="middle" fill="#5a4f3a" font-size="11" font-weight="normal">8 × 200.9</text>
<polygon points="110.0,568.0 442.8,568.0 442.8,280.0 330.8,168.0 110.0,168.0" fill="none" stroke="#2b5d8a" stroke-width="1.2" stroke-dasharray="5 4"/>
<line x1="442.8" y1="268.6" x2="334.2" y2="160.0" stroke="#1b6fa8" stroke-width="6"/>
<line x1="334.2" y1="160.0" x2="110.0" y2="160.0" stroke="#1b6fa8" stroke-width="6"/>
<circle cx="110.0" cy="160.0" r="7" fill="#1b6fa8"/>
<text x="122.0" y="150.0" text-anchor="start" fill="#1b6fa8" font-size="11" font-weight="bold">descente</text>
<text x="232.1" y="148.0" text-anchor="start" fill="#1b6fa8" font-size="11" font-weight="bold">gouttière 236.1</text>
<line x1="270.0" y1="512.0" x2="270.0" y2="368.0" stroke="#c0392b" stroke-width="2.5"/>
<polygon points="270.0,366.0 263.0,380.0 277.0,380.0" fill="#c0392b"/>
<text x="260.0" y="440.0" text-anchor="end" fill="#c0392b" font-size="12" font-weight="bold">pente 9 % (5,14°)</text>
<line x1="110.0" y1="580.0" x2="110.0" y2="606.0" stroke="#aaa" stroke-width="0.7"/>
<line x1="442.8" y1="580.0" x2="442.8" y2="606.0" stroke="#aaa" stroke-width="0.7"/>
<line x1="110.0" y1="602.0" x2="442.8" y2="602.0" stroke="#7a6f5a" stroke-width="1"/>
<line x1="107.0" y1="605.0" x2="113.0" y2="599.0" stroke="#7a6f5a" stroke-width="1"/>
<line x1="439.8" y1="605.0" x2="445.8" y2="599.0" stroke="#7a6f5a" stroke-width="1"/>
<text x="276.4" y="610.0" text-anchor="middle" dominant-baseline="middle" fill="#7a6f5a" font-size="11" font-weight="bold" transform="rotate(0.0 276.4 610.0)">208</text>
<line x1="446.8" y1="576.0" x2="472.8" y2="576.0" stroke="#aaa" stroke-width="0.7"/>
<line x1="446.8" y1="268.6" x2="472.8" y2="268.6" stroke="#aaa" stroke-width="0.7"/>
<line x1="468.8" y1="576.0" x2="468.8" y2="268.6" stroke="#7a6f5a" stroke-width="1"/>
<line x1="471.8" y1="579.0" x2="465.8" y2="573.0" stroke="#7a6f5a" stroke-width="1"/>
<line x1="471.8" y1="271.6" x2="465.8" y2="265.6" stroke="#7a6f5a" stroke-width="1"/>
<text x="476.8" y="422.3" text-anchor="middle" dominant-baseline="middle" fill="#7a6f5a" font-size="11" font-weight="bold" transform="rotate(-90.0 476.8 422.3)">192.1</text>
<line x1="445.6" y1="265.8" x2="464.0" y2="247.4" stroke="#aaa" stroke-width="0.7"/>
<line x1="337.0" y1="157.2" x2="355.4" y2="138.8" stroke="#aaa" stroke-width="0.7"/>
<line x1="461.2" y1="250.3" x2="352.5" y2="141.6" stroke="#7a6f5a" stroke-width="1"/>
<line x1="465.4" y1="250.3" x2="456.9" y2="250.3" stroke="#7a6f5a" stroke-width="1"/>
<line x1="356.8" y1="141.6" x2="348.3" y2="141.6" stroke="#7a6f5a" stroke-width="1"/>
<text x="412.5" y="190.3" text-anchor="middle" dominant-baseline="middle" fill="#7a6f5a" font-size="11" font-weight="bold" transform="rotate(45.0 412.5 190.3)">96</text>
<line x1="334.2" y1="156.0" x2="334.2" y2="130.0" stroke="#aaa" stroke-width="0.7"/>
<line x1="110.0" y1="156.0" x2="110.0" y2="130.0" stroke="#aaa" stroke-width="0.7"/>
<line x1="334.2" y1="134.0" x2="110.0" y2="134.0" stroke="#7a6f5a" stroke-width="1"/>
<line x1="337.2" y1="131.0" x2="331.2" y2="137.0" stroke="#7a6f5a" stroke-width="1"/>
<line x1="113.0" y1="131.0" x2="107.0" y2="137.0" stroke="#7a6f5a" stroke-width="1"/>
<text x="222.1" y="126.0" text-anchor="middle" dominant-baseline="middle" fill="#7a6f5a" font-size="11" font-weight="bold" transform="rotate(0.0 222.1 126.0)">140.1</text>
<line x1="106.0" y1="160.0" x2="80.0" y2="160.0" stroke="#aaa" stroke-width="0.7"/>
<line x1="106.0" y1="576.0" x2="80.0" y2="576.0" stroke="#aaa" stroke-width="0.7"/>
<line x1="84.0" y1="160.0" x2="84.0" y2="576.0" stroke="#7a6f5a" stroke-width="1"/>
<line x1="81.0" y1="157.0" x2="87.0" y2="163.0" stroke="#7a6f5a" stroke-width="1"/>
<line x1="81.0" y1="573.0" x2="87.0" y2="579.0" stroke="#7a6f5a" stroke-width="1"/>
<text x="76.0" y="368.0" text-anchor="middle" dominant-baseline="middle" fill="#7a6f5a" font-size="11" font-weight="bold" transform="rotate(90.0 76.0 368.0)">260</text>
<text x="276.4" y="26.0" text-anchor="middle" fill="#222" font-size="15" font-weight="bold">Face T · Toiture · 3 panneaux · 5.18 m² couverts</text>
<text x="276.4" y="46.0" text-anchor="middle" fill="#888" font-size="11" font-weight="normal">panneaux dans le sens de la pente (longueur = rampant) · murs en pointillé · débords avant et fond</text>
<text x="276.4" y="674.0" text-anchor="middle" fill="#666" font-size="12" font-weight="normal">AVANT (jardin)</text>
</svg>
