<svg xmlns="http://www.w3.org/2000/svg" viewBox="0 0 581 738" font-family="system-ui,sans-serif" font-size="13">
<rect width="581" height="738" fill="#fbfbf8"/>
<polygon points="110.0,627.9 437.5,627.9 437.5,349.1 200.9,130.0 110.0,222.9" fill="#e9e5da" stroke="#6f675a" stroke-width="2"/>
<line x1="110.0" y1="635.9" x2="110.0" y2="662.9" stroke="#999" stroke-width="0.8"/>
<line x1="437.5" y1="635.9" x2="437.5" y2="662.9" stroke="#999" stroke-width="0.8"/>
<line x1="110.0" y1="657.9" x2="437.5" y2="657.9" stroke="#2b5d8a" stroke-width="1.2"/>
<line x1="106.0" y1="661.9" x2="114.0" y2="653.9" stroke="#2b5d8a" stroke-width="1.2"/>
<line x1="433.5" y1="661.9" x2="441.5" y2="653.9" stroke="#2b5d8a" stroke-width="1.2"/>
<text x="273.8" y="665.9" text-anchor="middle" dominant-baseline="middle" fill="#2b5d8a" font-size="13" font-weight="bold" transform="rotate(0.0 273.8 665.9)">262 cm</text>
<line x1="445.5" y1="627.9" x2="472.5" y2="627.9" stroke="#999" stroke-width="0.8"/>
<line x1="445.5" y1="349.1" x2="472.5" y2="349.1" stroke="#999" stroke-width="0.8"/>
<line x1="467.5" y1="627.9" x2="467.5" y2="349.1" stroke="#2b5d8a" stroke-width="1.2"/>
<line x1="471.5" y1="631.9" x2="463.5" y2="623.9" stroke="#2b5d8a" stroke-width="1.2"/>
<line x1="471.5" y1="353.1" x2="463.5" y2="345.1" stroke="#2b5d8a" stroke-width="1.2"/>
<text x="475.5" y="488.5" text-anchor="middle" dominant-baseline="middle" fill="#2b5d8a" font-size="13" font-weight="bold" transform="rotate(-90.0 475.5 488.5)">223 cm</text>
<line x1="440.2" y1="346.2" x2="203.6" y2="127.1" stroke="#5b4a3a" stroke-width="6"/>
<line x1="442.9" y1="343.3" x2="461.3" y2="323.4" stroke="#999" stroke-width="0.8"/>
<line x1="206.3" y1="124.1" x2="224.7" y2="104.3" stroke="#999" stroke-width="0.8"/>
<line x1="457.9" y1="327.1" x2="221.3" y2="108.0" stroke="#2b5d8a" stroke-width="1.2"/>
<line x1="463.5" y1="326.9" x2="452.2" y2="327.3" stroke="#2b5d8a" stroke-width="1.2"/>
<line x1="226.9" y1="107.8" x2="215.6" y2="108.2" stroke="#2b5d8a" stroke-width="1.2"/>
<text x="345.0" y="211.7" text-anchor="middle" dominant-baseline="middle" fill="#2b5d8a" font-size="13" font-weight="bold" transform="rotate(42.8 345.0 211.7)">258 cm · mur</text>
<line x1="198.7" y1="127.9" x2="107.9" y2="220.8" stroke="#5f8a4a" stroke-width="3" stroke-dasharray="7 4"/>
<line x1="195.2" y1="124.4" x2="175.9" y2="105.5" stroke="#999" stroke-width="0.8"/>
<line x1="104.3" y1="217.3" x2="85.0" y2="198.4" stroke="#999" stroke-width="0.8"/>
<line x1="179.4" y1="109.0" x2="88.6" y2="201.9" stroke="#2b5d8a" stroke-width="1.2"/>
<line x1="179.4" y1="103.4" x2="179.5" y2="114.7" stroke="#2b5d8a" stroke-width="1.2"/>
<line x1="88.5" y1="196.2" x2="88.6" y2="207.6" stroke="#2b5d8a" stroke-width="1.2"/>
<text x="128.3" y="149.9" text-anchor="middle" dominant-baseline="middle" fill="#2b5d8a" font-size="13" font-weight="bold" transform="rotate(-45.6 128.3 149.9)">104 cm · mur</text>
<line x1="107.0" y1="222.9" x2="107.0" y2="627.9" stroke="#5f8a4a" stroke-width="3" stroke-dasharray="7 4"/>
<line x1="102.0" y1="222.9" x2="75.0" y2="222.9" stroke="#999" stroke-width="0.8"/>
<line x1="102.0" y1="627.9" x2="75.0" y2="627.9" stroke="#999" stroke-width="0.8"/>
<line x1="80.0" y1="222.9" x2="80.0" y2="627.9" stroke="#2b5d8a" stroke-width="1.2"/>
<line x1="76.0" y1="218.9" x2="84.0" y2="226.9" stroke="#2b5d8a" stroke-width="1.2"/>
<line x1="76.0" y1="623.9" x2="84.0" y2="631.9" stroke="#2b5d8a" stroke-width="1.2"/>
<text x="72.0" y="425.4" text-anchor="middle" dominant-baseline="middle" fill="#2b5d8a" font-size="13" font-weight="bold" transform="rotate(90.0 72.0 425.4)">324 cm · mur</text>
<polyline points="421.4,334.2 419.4,336.7 417.8,339.4 416.6,342.4 415.8,345.5 415.5,348.6 415.7,351.8 416.3,354.9 417.3,357.9 418.8,360.8 420.7,363.3 422.9,365.6 425.5,367.5 428.2,369.1 431.2,370.2 434.3,370.9 437.5,371.1" fill="none" stroke="#b0452a" stroke-width="1.5"/>
<text x="397.2" y="370.7" text-anchor="middle" fill="#b0452a" font-size="12" font-weight="bold">132.8°</text>
<polyline points="185.5,145.7 187.1,147.2 188.9,148.5 190.8,149.6 192.8,150.5 194.9,151.2 197.0,151.7 199.2,151.9 201.4,152.0 203.6,151.8 205.8,151.4 207.9,150.9 209.9,150.0 211.9,149.0 213.7,147.8 215.5,146.5 217.0,144.9" fill="none" stroke="#b0452a" stroke-width="1.5"/>
<text x="202.0" y="178.0" text-anchor="middle" fill="#b0452a" font-size="12" font-weight="bold">91.6°</text>
<polyline points="110.0,244.9 113.2,244.6 116.4,243.9 119.4,242.7 122.3,241.1 124.8,239.1 127.1,236.8 128.9,234.1 130.4,231.2 131.4,228.1 131.9,224.9 132.0,221.6 131.5,218.4 130.7,215.3 129.3,212.3 127.5,209.6 125.4,207.2" fill="none" stroke="#b0452a" stroke-width="1.5"/>
<text x="150.7" y="243.5" text-anchor="middle" fill="#b0452a" font-size="12" font-weight="bold">135.6°</text>
<polygon points="122.5,621.6 385.0,621.6 385.0,387.8 300.1,302.9 122.5,302.9" fill="none" stroke="#7a6f5a" stroke-width="1.2" stroke-dasharray="6 4"/>
<line x1="385.0" y1="387.8" x2="300.1" y2="302.9" stroke="#1b6fa8" stroke-width="4"/>
<line x1="300.1" y1="302.9" x2="122.5" y2="302.9" stroke="#1b6fa8" stroke-width="4"/>
<circle cx="385.0" cy="387.8" r="5" fill="#1b6fa8"/>
<defs><pattern id="cache" width="7" height="7" patternUnits="userSpaceOnUse" patternTransform="rotate(-45)"><line x1="0" y1="0" x2="0" y2="7" stroke="#6b8e23" stroke-width="1.6"/></pattern></defs>
<polygon points="385.0,300.5 200.9,130.0 160.1,171.8 385.0,396.6" fill="url(#cache)" stroke="#6b8e23" stroke-width="1"/>
<polygon points="385.0,300.5 200.9,130.0 110.0,222.9 110.0,309.1 385.0,309.1" fill="url(#cache)" stroke="#6b8e23" stroke-width="1"/>
<text x="222.5" y="204.6" text-anchor="middle" fill="#4f6b18" font-size="11" font-weight="bold">rangement caché</text>
<text x="222.5" y="217.6" text-anchor="middle" fill="#4f6b18" font-size="11" font-weight="bold">2.12 m²</text>
<polygon points="122.5,615.4 385.0,615.4 385.0,396.6 297.5,309.1 122.5,309.1" fill="#cfe0f1" stroke="#2b5d8a" stroke-width="2.5"/>
<text x="253.8" y="601.4" text-anchor="middle" dominant-baseline="middle" fill="#2b5d8a" font-size="13" font-weight="bold" transform="rotate(0.0 253.8 601.4)">210</text>
<text x="371.0" y="506.0" text-anchor="middle" dominant-baseline="middle" fill="#2b5d8a" font-size="13" font-weight="bold" transform="rotate(-90.0 371.0 506.0)">175</text>
<text x="331.4" y="362.8" text-anchor="middle" dominant-baseline="middle" fill="#2b5d8a" font-size="13" font-weight="bold" transform="rotate(45.0 331.4 362.8)">99</text>
<text x="210.0" y="323.1" text-anchor="middle" dominant-baseline="middle" fill="#2b5d8a" font-size="13" font-weight="bold" transform="rotate(0.0 210.0 323.1)">140</text>
<text x="136.5" y="462.2" text-anchor="middle" dominant-baseline="middle" fill="#2b5d8a" font-size="13" font-weight="bold" transform="rotate(90.0 136.5 462.2)">245</text>
<polyline points="138.5,615.4 138.4,613.3 138.0,611.2 137.3,609.3 136.4,607.4 135.2,605.6 133.8,604.1 132.2,602.7 130.5,601.5 128.6,600.6 126.6,599.9 124.6,599.5 122.5,599.4" fill="none" stroke="#b0452a" stroke-width="1.2"/>
<polyline points="385.0,599.4 382.9,599.5 380.9,599.9 378.9,600.6 377.0,601.5 375.3,602.7 373.7,604.1 372.3,605.6 371.1,607.4 370.2,609.3 369.5,611.2 369.1,613.3 369.0,615.4" fill="none" stroke="#b0452a" stroke-width="1.2"/>
<polyline points="373.7,385.3 371.7,387.7 370.2,390.5 369.3,393.5 369.0,396.6 369.3,399.7 370.2,402.7 371.7,405.5 373.7,407.9 376.1,409.9 378.9,411.4 381.9,412.3 385.0,412.6" fill="none" stroke="#b0452a" stroke-width="1.2"/>
<text x="348.0" y="415.9" text-anchor="middle" fill="#b0452a" font-size="11" font-weight="bold">135.0°</text>
<polyline points="281.5,309.1 281.8,312.2 282.7,315.2 284.2,318.0 286.2,320.4 288.6,322.4 291.4,323.9 294.4,324.8 297.5,325.1 300.6,324.8 303.6,323.9 306.4,322.4 308.8,320.4" fill="none" stroke="#b0452a" stroke-width="1.2"/>
<text x="282.2" y="350.1" text-anchor="middle" fill="#b0452a" font-size="11" font-weight="bold">135.0°</text>
<polyline points="122.5,325.1 124.6,325.0 126.6,324.6 128.6,323.9 130.5,323.0 132.2,321.8 133.8,320.4 135.2,318.9 136.4,317.1 137.3,315.2 138.0,313.3 138.4,311.2 138.5,309.1" fill="none" stroke="#b0452a" stroke-width="1.2"/>
<line x1="135.0" y1="615.4" x2="235.0" y2="615.4" stroke="#1b9aa8" stroke-width="6"/>
<text x="185.0" y="631.4" text-anchor="middle" fill="#1b9aa8" font-size="10" font-weight="bold">fen. 80×75 ouvr.</text>
<line x1="260.0" y1="615.4" x2="360.0" y2="615.4" stroke="#1b9aa8" stroke-width="6"/>
<text x="310.0" y="631.4" text-anchor="middle" fill="#1b9aa8" font-size="10" font-weight="bold">fen. 80×75 ouvr.</text>
<line x1="385.0" y1="512.2" x2="385.0" y2="506.0" stroke="#7a5530" stroke-width="7"/>
<line x1="385.0" y1="412.2" x2="385.0" y2="406.0" stroke="#7a5530" stroke-width="7"/>
<line x1="385.0" y1="506.0" x2="385.0" y2="412.2" stroke="#c0392b" stroke-width="5"/>
<line x1="385.0" y1="412.2" x2="478.8" y2="412.2" stroke="#c0392b" stroke-width="2"/>
<polyline points="385.0,506.0 394.2,505.5 403.3,504.2 412.2,502.0 420.9,498.9 429.2,494.9 437.1,490.2 444.5,484.7 451.3,478.5 457.5,471.7 463.0,464.3 467.7,456.4 471.6,448.1 474.7,439.5 476.9,430.5 478.3,421.4 478.8,412.2" fill="none" stroke="#c0392b" stroke-width="1" stroke-dasharray="4 3"/>
<text x="403.0" y="459.1" text-anchor="middle" dominant-baseline="middle" fill="#c0392b" font-size="11" font-weight="bold" transform="rotate(90.0 403.0 459.1)">porte 75</text>
<line x1="297.5" y1="309.1" x2="342.2" y2="260.9" stroke="#2a8a4a" stroke-width="2.5"/>
<circle cx="297.5" cy="309.1" r="3" fill="#2a8a4a"/>
<text x="326.5" y="291.1" text-anchor="middle" dominant-baseline="middle" fill="#2a8a4a" font-size="11" font-weight="bold" transform="rotate(-47.2 326.5 291.1)">52.6</text>
<line x1="122.5" y1="309.1" x2="110.0" y2="222.9" stroke="#2a8a4a" stroke-width="2.5"/>
<circle cx="122.5" cy="309.1" r="3" fill="#2a8a4a"/>
<text x="107.3" y="267.3" text-anchor="middle" dominant-baseline="middle" fill="#2a8a4a" font-size="11" font-weight="bold" transform="rotate(81.8 107.3 267.3)">69.7</text>
<text x="262.5" y="449.1" text-anchor="middle" fill="#2b5d8a" font-size="22" font-weight="bold">4.9 m²</text>
<text x="262.5" y="467.1" text-anchor="middle" fill="#2b5d8a" font-size="12" font-weight="normal">intérieur 4.39 m²</text>
<polygon points="130.0,607.9 377.5,607.9 377.5,399.8 294.4,316.6 130.0,316.6" fill="none" stroke="#2b5d8a" stroke-width="1" stroke-dasharray="3 2"/>
<line x1="122.5" y1="615.4" x2="122.5" y2="627.9" stroke="#b86e1f" stroke-width="2"/>
<text x="130.5" y="625.6" text-anchor="start" fill="#b86e1f" font-size="11" font-weight="bold">10</text>
<line x1="385.0" y1="615.4" x2="437.5" y2="615.4" stroke="#b86e1f" stroke-width="2"/>
<text x="411.2" y="609.4" text-anchor="middle" fill="#b86e1f" font-size="11" font-weight="bold">42</text>
<line x1="122.5" y1="615.4" x2="110.0" y2="615.4" stroke="#b86e1f" stroke-width="2"/>
<text x="116.2" y="609.4" text-anchor="middle" fill="#b86e1f" font-size="11" font-weight="bold">10</text>
<text x="290.6" y="26.0" text-anchor="middle" fill="#222" font-size="15" font-weight="bold">Implantation sur la dalle · abri 4.9 m² sur 8.51 m² de dalle</text>
<text x="290.6" y="46.0" text-anchor="middle" fill="#888" font-size="11" font-weight="normal">brun = palissade bois, vert pointillé = grillage · orange = distance aux bords · vert = passage derrière · hachures = rangement caché</text>
<text x="290.6" y="725.9" text-anchor="middle" fill="#666" font-size="11" font-weight="normal">AVANT (jardin) · brun = palissade bois, vert pointillé = grillage</text>
</svg>
