<svg xmlns="http://www.w3.org/2000/svg" viewBox="0 0 440 496" font-family="system-ui,sans-serif" font-size="13">
<rect width="440" height="496" fill="#fbfbf8"/>
<polygon points="90.0,406.2 233.8,406.2 233.8,137.5 90.0,137.5" fill="#eef2f6" stroke="#2b5d8a" stroke-width="1.5"/>
<text x="161.9" y="160.0" text-anchor="middle" fill="#2b5d8a" font-size="12" font-weight="bold">A1</text>
<polygon points="233.8,406.2 350.0,406.2 350.0,137.5 233.8,137.5" fill="#eef2f6" stroke="#2b5d8a" stroke-width="1.5"/>
<text x="291.9" y="160.0" text-anchor="middle" fill="#2b5d8a" font-size="12" font-weight="bold">A2 · 93</text>
<polygon points="90.0,137.5 350.0,137.5 350.0,110.0 90.0,110.0" fill="#d9b98a" stroke="#8a5a2b" stroke-width="1.5"/>
<text x="220.0" y="128.0" text-anchor="middle" fill="#5a3a1a" font-size="10" font-weight="bold">R1 · rehausse 22 → 22</text>
<rect x="111.9" y="168.8" width="100.0" height="93.8" fill="#bfe3ef" stroke="#1b9aa8" stroke-width="2"/>
<text x="161.9" y="211.6" text-anchor="middle" fill="#1b9aa8" font-size="11" font-weight="bold">fenêtre ouvrante</text>
<text x="161.9" y="227.6" text-anchor="middle" fill="#1b9aa8" font-size="10" font-weight="normal">80 × 75 · allège 115</text>
<line x1="111.9" y1="410.2" x2="111.9" y2="430.2" stroke="#aaa" stroke-width="0.7"/>
<line x1="211.9" y1="410.2" x2="211.9" y2="430.2" stroke="#aaa" stroke-width="0.7"/>
<line x1="111.9" y1="426.2" x2="211.9" y2="426.2" stroke="#1b9aa8" stroke-width="1"/>
<line x1="108.9" y1="429.2" x2="114.9" y2="423.2" stroke="#1b9aa8" stroke-width="1"/>
<line x1="208.9" y1="429.2" x2="214.9" y2="423.2" stroke="#1b9aa8" stroke-width="1"/>
<text x="161.9" y="434.2" text-anchor="middle" dominant-baseline="middle" fill="#1b9aa8" font-size="10" font-weight="bold" transform="rotate(0.0 161.9 434.2)">80</text>
<rect x="241.9" y="168.8" width="100.0" height="93.8" fill="#bfe3ef" stroke="#1b9aa8" stroke-width="2"/>
<text x="291.9" y="211.6" text-anchor="middle" fill="#1b9aa8" font-size="11" font-weight="bold">fenêtre ouvrante</text>
<text x="291.9" y="227.6" text-anchor="middle" fill="#1b9aa8" font-size="10" font-weight="normal">80 × 75 · allège 115</text>
<line x1="241.9" y1="410.2" x2="241.9" y2="430.2" stroke="#aaa" stroke-width="0.7"/>
<line x1="341.9" y1="410.2" x2="341.9" y2="430.2" stroke="#aaa" stroke-width="0.7"/>
<line x1="241.9" y1="426.2" x2="341.9" y2="426.2" stroke="#1b9aa8" stroke-width="1"/>
<line x1="238.9" y1="429.2" x2="244.9" y2="423.2" stroke="#1b9aa8" stroke-width="1"/>
<line x1="338.9" y1="429.2" x2="344.9" y2="423.2" stroke="#1b9aa8" stroke-width="1"/>
<text x="291.9" y="434.2" text-anchor="middle" dominant-baseline="middle" fill="#1b9aa8" font-size="10" font-weight="bold" transform="rotate(0.0 291.9 434.2)">80</text>
<line x1="90.0" y1="410.2" x2="90.0" y2="454.2" stroke="#aaa" stroke-width="0.7"/>
<line x1="350.0" y1="410.2" x2="350.0" y2="454.2" stroke="#aaa" stroke-width="0.7"/>
<line x1="90.0" y1="450.2" x2="350.0" y2="450.2" stroke="#2b5d8a" stroke-width="1"/>
<line x1="87.0" y1="453.2" x2="93.0" y2="447.2" stroke="#2b5d8a" stroke-width="1"/>
<line x1="347.0" y1="453.2" x2="353.0" y2="447.2" stroke="#2b5d8a" stroke-width="1"/>
<text x="220.0" y="458.2" text-anchor="middle" dominant-baseline="middle" fill="#2b5d8a" font-size="12" font-weight="bold" transform="rotate(0.0 220.0 458.2)">208 cm</text>
<text x="82.0" y="114.0" text-anchor="end" fill="#2b5d8a" font-size="12" font-weight="bold">237</text>
<text x="358.0" y="114.0" text-anchor="start" fill="#2b5d8a" font-size="12" font-weight="bold">237</text>
<text x="82.0" y="153.5" text-anchor="end" fill="#888" font-size="10" font-weight="normal">215</text>
<text x="220.0" y="26.0" text-anchor="middle" fill="#222" font-size="15" font-weight="bold">Face A · avant</text>
<text x="220.0" y="46.0" text-anchor="middle" fill="#888" font-size="11" font-weight="normal">vue de l'extérieur · 2 panneaux de 215 · hauteurs finies aux deux bouts</text>
</svg>
