<svg xmlns="http://www.w3.org/2000/svg" viewBox="0 0 399 469" font-family="system-ui,sans-serif" font-size="13">
<rect width="399" height="469" fill="#fbfbf8"/>
<polygon points="90.0,378.8 183.8,378.8 183.8,110.0 90.0,110.0" fill="#eef2f6" stroke="#2b5d8a" stroke-width="1.5"/>
<text x="136.9" y="132.5" text-anchor="middle" fill="#2b5d8a" font-size="12" font-weight="bold">D1</text>
<text x="136.9" y="146.5" text-anchor="middle" fill="#2b5d8a" font-size="10" font-weight="normal">75</text>
<polygon points="183.8,378.8 308.8,378.8 308.8,110.0 183.8,110.0" fill="#eef2f6" stroke="#2b5d8a" stroke-width="1.5"/>
<text x="246.2" y="132.5" text-anchor="middle" fill="#2b5d8a" font-size="12" font-weight="bold">D2</text>
<rect x="186.9" y="116.2" width="112.5" height="262.5" fill="#b98a55" stroke="#7a5530" stroke-width="1.2"/>
<line x1="303.4" y1="116.2" x2="289.4" y2="116.2" stroke="#aaa" stroke-width="0.7"/>
<line x1="303.4" y1="110.0" x2="289.4" y2="110.0" stroke="#aaa" stroke-width="0.7"/>
<line x1="285.4" y1="116.2" x2="285.4" y2="110.0" stroke="#7a5530" stroke-width="1"/>
<line x1="288.4" y1="119.2" x2="282.4" y2="113.2" stroke="#7a5530" stroke-width="1"/>
<line x1="288.4" y1="113.0" x2="282.4" y2="107.0" stroke="#7a5530" stroke-width="1"/>
<text x="293.4" y="113.1" text-anchor="middle" dominant-baseline="middle" fill="#7a5530" font-size="9" font-weight="bold" transform="rotate(-90.0 293.4 113.1)">5</text>
<rect x="193.1" y="122.5" width="100.0" height="256.2" fill="#c9cfd4" stroke="#c0392b" stroke-width="2"/>
<text x="243.1" y="246.6" text-anchor="middle" fill="#c0392b" font-size="11" font-weight="bold">porte pleine</text>
<text x="243.1" y="262.6" text-anchor="middle" fill="#c0392b" font-size="10" font-weight="normal">80 × 205</text>
<line x1="193.1" y1="382.8" x2="193.1" y2="402.8" stroke="#aaa" stroke-width="0.7"/>
<line x1="293.1" y1="382.8" x2="293.1" y2="402.8" stroke="#aaa" stroke-width="0.7"/>
<line x1="193.1" y1="398.8" x2="293.1" y2="398.8" stroke="#c0392b" stroke-width="1"/>
<line x1="190.1" y1="401.8" x2="196.1" y2="395.8" stroke="#c0392b" stroke-width="1"/>
<line x1="290.1" y1="401.8" x2="296.1" y2="395.8" stroke="#c0392b" stroke-width="1"/>
<text x="243.1" y="406.8" text-anchor="middle" dominant-baseline="middle" fill="#c0392b" font-size="10" font-weight="bold" transform="rotate(0.0 243.1 406.8)">80</text>
<text x="243.1" y="140.0" text-anchor="middle" fill="#7a5530" font-size="10" font-weight="bold">cadre 90 × 210</text>
<line x1="90.0" y1="382.8" x2="90.0" y2="426.8" stroke="#aaa" stroke-width="0.7"/>
<line x1="308.8" y1="382.8" x2="308.8" y2="426.8" stroke="#aaa" stroke-width="0.7"/>
<line x1="90.0" y1="422.8" x2="308.8" y2="422.8" stroke="#2b5d8a" stroke-width="1"/>
<line x1="87.0" y1="425.8" x2="93.0" y2="419.8" stroke="#2b5d8a" stroke-width="1"/>
<line x1="305.8" y1="425.8" x2="311.8" y2="419.8" stroke="#2b5d8a" stroke-width="1"/>
<text x="199.4" y="430.8" text-anchor="middle" dominant-baseline="middle" fill="#2b5d8a" font-size="12" font-weight="bold" transform="rotate(0.0 199.4 430.8)">175 cm</text>
<text x="82.0" y="114.0" text-anchor="end" fill="#2b5d8a" font-size="12" font-weight="bold">215</text>
<text x="316.8" y="114.0" text-anchor="start" fill="#2b5d8a" font-size="12" font-weight="bold">215</text>
<text x="82.0" y="126.0" text-anchor="end" fill="#888" font-size="10" font-weight="normal">215</text>
<text x="199.4" y="26.0" text-anchor="middle" fill="#222" font-size="15" font-weight="bold">Face D · droite</text>
<text x="199.4" y="46.0" text-anchor="middle" fill="#888" font-size="11" font-weight="normal">vue de l'extérieur · 2 panneaux de 215 · hauteurs finies aux deux bouts</text>
</svg>
