<svg xmlns="http://www.w3.org/2000/svg" viewBox="0 0 405 496" font-family="system-ui,sans-serif" font-size="13">
<rect width="405" height="496" fill="#fbfbf8"/>
<polygon points="90.0,406.2 190.0,406.2 190.0,137.5 90.0,137.5" fill="#eef2f6" stroke="#2b5d8a" stroke-width="1.5"/>
<text x="140.0" y="160.0" text-anchor="middle" fill="#2b5d8a" font-size="12" font-weight="bold">D1</text>
<text x="140.0" y="174.0" text-anchor="middle" fill="#2b5d8a" font-size="10" font-weight="normal">80</text>
<polygon points="190.0,406.2 315.0,406.2 315.0,137.5 190.0,137.5" fill="#eef2f6" stroke="#2b5d8a" stroke-width="1.5"/>
<text x="252.5" y="160.0" text-anchor="middle" fill="#2b5d8a" font-size="12" font-weight="bold">D2</text>
<polygon points="90.0,137.5 315.0,137.5 315.0,129.8 90.0,110.0" fill="#d9b98a" stroke="#8a5a2b" stroke-width="1.5"/>
<text x="202.5" y="128.0" text-anchor="middle" fill="#5a3a1a" font-size="10" font-weight="bold">R2 · rehausse 22 → 6.2</text>
<rect x="211.9" y="156.2" width="87.5" height="250.0" fill="#c9cfd4" stroke="#c0392b" stroke-width="2"/>
<text x="255.6" y="277.2" text-anchor="middle" fill="#c0392b" font-size="11" font-weight="bold">porte pleine</text>
<text x="255.6" y="293.2" text-anchor="middle" fill="#c0392b" font-size="10" font-weight="normal">70 × 200</text>
<line x1="211.9" y1="410.2" x2="211.9" y2="430.2" stroke="#aaa" stroke-width="0.7"/>
<line x1="299.4" y1="410.2" x2="299.4" y2="430.2" stroke="#aaa" stroke-width="0.7"/>
<line x1="211.9" y1="426.2" x2="299.4" y2="426.2" stroke="#c0392b" stroke-width="1"/>
<line x1="208.9" y1="429.2" x2="214.9" y2="423.2" stroke="#c0392b" stroke-width="1"/>
<line x1="296.4" y1="429.2" x2="302.4" y2="423.2" stroke="#c0392b" stroke-width="1"/>
<text x="255.6" y="434.2" text-anchor="middle" dominant-baseline="middle" fill="#c0392b" font-size="10" font-weight="bold" transform="rotate(0.0 255.6 434.2)">70</text>
<line x1="90.0" y1="410.2" x2="90.0" y2="454.2" stroke="#aaa" stroke-width="0.7"/>
<line x1="315.0" y1="410.2" x2="315.0" y2="454.2" stroke="#aaa" stroke-width="0.7"/>
<line x1="90.0" y1="450.2" x2="315.0" y2="450.2" stroke="#2b5d8a" stroke-width="1"/>
<line x1="87.0" y1="453.2" x2="93.0" y2="447.2" stroke="#2b5d8a" stroke-width="1"/>
<line x1="312.0" y1="453.2" x2="318.0" y2="447.2" stroke="#2b5d8a" stroke-width="1"/>
<text x="202.5" y="458.2" text-anchor="middle" dominant-baseline="middle" fill="#2b5d8a" font-size="12" font-weight="bold" transform="rotate(0.0 202.5 458.2)">180 cm</text>
<text x="82.0" y="114.0" text-anchor="end" fill="#2b5d8a" font-size="12" font-weight="bold">237</text>
<text x="323.0" y="133.8" text-anchor="start" fill="#2b5d8a" font-size="12" font-weight="bold">221.2</text>
<text x="82.0" y="153.5" text-anchor="end" fill="#888" font-size="10" font-weight="normal">215</text>
<text x="202.5" y="26.0" text-anchor="middle" fill="#222" font-size="15" font-weight="bold">Face D · droite</text>
<text x="202.5" y="46.0" text-anchor="middle" fill="#888" font-size="11" font-weight="normal">vue de l'extérieur · 2 panneaux de 215 · hauteurs finies aux deux bouts</text>
</svg>
