<svg xmlns="http://www.w3.org/2000/svg" viewBox="0 0 357 497" font-family="system-ui,sans-serif" font-size="13">
<rect width="357" height="497" fill="#fbfbf8"/>
<polygon points="90.0,406.9 215.0,406.9 215.0,138.1 90.0,138.1" fill="#eef2f6" stroke="#2b5d8a" stroke-width="1.5"/>
<text x="152.5" y="160.6" text-anchor="middle" fill="#2b5d8a" font-size="12" font-weight="bold">C1</text>
<polygon points="215.0,406.9 266.8,406.9 266.8,138.1 215.0,138.1" fill="#eef2f6" stroke="#2b5d8a" stroke-width="1.5"/>
<text x="240.9" y="160.6" text-anchor="middle" fill="#2b5d8a" font-size="12" font-weight="bold">C2</text>
<text x="240.9" y="174.6" text-anchor="middle" fill="#2b5d8a" font-size="10" font-weight="normal">41.4</text>
<polygon points="90.0,138.1 266.8,138.1 266.8,138.1 90.0,127.9" fill="#d9b98a" stroke="#8a5a2b" stroke-width="1.5"/>
<text x="178.4" y="128.6" text-anchor="middle" fill="#5a3a1a" font-size="10" font-weight="bold">R3 · rehausse 8.2 → 0</text>
<line x1="90.0" y1="410.9" x2="90.0" y2="430.9" stroke="#aaa" stroke-width="0.7"/>
<line x1="266.8" y1="410.9" x2="266.8" y2="430.9" stroke="#aaa" stroke-width="0.7"/>
<line x1="90.0" y1="426.9" x2="266.8" y2="426.9" stroke="#2b5d8a" stroke-width="1"/>
<line x1="87.0" y1="429.9" x2="93.0" y2="423.9" stroke="#2b5d8a" stroke-width="1"/>
<line x1="263.8" y1="429.9" x2="269.8" y2="423.9" stroke="#2b5d8a" stroke-width="1"/>
<text x="178.4" y="434.9" text-anchor="middle" dominant-baseline="middle" fill="#2b5d8a" font-size="12" font-weight="bold" transform="rotate(0.0 178.4 434.9)">141.4 cm</text>
<text x="82.0" y="131.9" text-anchor="end" fill="#2b5d8a" font-size="12" font-weight="bold">223.2</text>
<text x="274.8" y="142.1" text-anchor="start" fill="#2b5d8a" font-size="12" font-weight="bold">215</text>
<text x="82.0" y="154.1" text-anchor="end" fill="#888" font-size="10" font-weight="normal">215</text>
<text x="178.4" y="26.0" text-anchor="middle" fill="#222" font-size="15" font-weight="bold">Face C · fond en biais</text>
<text x="178.4" y="46.0" text-anchor="middle" fill="#888" font-size="11" font-weight="normal">vue de l'extérieur · 2 panneaux de 215 · hauteurs finies aux deux bouts</text>
</svg>
