<svg xmlns="http://www.w3.org/2000/svg" viewBox="0 0 548 803" font-family="system-ui,sans-serif" font-size="13">
<rect width="548" height="803" fill="#fbfbf8"/>
<defs><pattern id="bande" width="7" height="7" patternUnits="userSpaceOnUse" patternTransform="rotate(45)"><rect width="7" height="7" fill="#f3e3cf"/><line x1="0" y1="0" x2="0" y2="7" stroke="#e0b98a" stroke-width="2"/></pattern></defs>
<polygon points="110.0,627.9 437.5,627.9 437.5,349.1 200.9,130.0 110.0,222.9" fill="url(#bande)" stroke="#6f675a" stroke-width="2"/>
<polygon points="125.0,621.6 431.2,621.6 431.2,420.0 172.6,180.4 125.0,229.0" fill="#e3efe0" stroke="#2a8a4a" stroke-width="1.8" stroke-dasharray="5 4"/>
<line x1="110.0" y1="635.9" x2="110.0" y2="662.9" stroke="#999" stroke-width="0.8"/>
<line x1="437.5" y1="635.9" x2="437.5" y2="662.9" stroke="#999" stroke-width="0.8"/>
<line x1="110.0" y1="657.9" x2="437.5" y2="657.9" stroke="#2b5d8a" stroke-width="1.2"/>
<line x1="106.0" y1="661.9" x2="114.0" y2="653.9" stroke="#2b5d8a" stroke-width="1.2"/>
<line x1="433.5" y1="661.9" x2="441.5" y2="653.9" stroke="#2b5d8a" stroke-width="1.2"/>
<text x="273.8" y="665.9" text-anchor="middle" dominant-baseline="middle" fill="#2b5d8a" font-size="13" font-weight="bold" transform="rotate(0.0 273.8 665.9)">262 cm</text>
<line x1="445.5" y1="627.9" x2="472.5" y2="627.9" stroke="#999" stroke-width="0.8"/>
<line x1="445.5" y1="349.1" x2="472.5" y2="349.1" stroke="#999" stroke-width="0.8"/>
<line x1="467.5" y1="627.9" x2="467.5" y2="349.1" stroke="#2b5d8a" stroke-width="1.2"/>
<line x1="471.5" y1="631.9" x2="463.5" y2="623.9" stroke="#2b5d8a" stroke-width="1.2"/>
<line x1="471.5" y1="353.1" x2="463.5" y2="345.1" stroke="#2b5d8a" stroke-width="1.2"/>
<text x="475.5" y="488.5" text-anchor="middle" dominant-baseline="middle" fill="#2b5d8a" font-size="13" font-weight="bold" transform="rotate(-90.0 475.5 488.5)">223 cm</text>
<line x1="440.2" y1="346.2" x2="203.6" y2="127.1" stroke="#5b4a3a" stroke-width="6"/>
<line x1="442.9" y1="343.3" x2="461.3" y2="323.4" stroke="#999" stroke-width="0.8"/>
<line x1="206.3" y1="124.1" x2="224.7" y2="104.3" stroke="#999" stroke-width="0.8"/>
<line x1="457.9" y1="327.1" x2="221.3" y2="108.0" stroke="#2b5d8a" stroke-width="1.2"/>
<line x1="463.5" y1="326.9" x2="452.2" y2="327.3" stroke="#2b5d8a" stroke-width="1.2"/>
<line x1="226.9" y1="107.8" x2="215.6" y2="108.2" stroke="#2b5d8a" stroke-width="1.2"/>
<text x="345.0" y="211.7" text-anchor="middle" dominant-baseline="middle" fill="#2b5d8a" font-size="13" font-weight="bold" transform="rotate(42.8 345.0 211.7)">258 cm · mur</text>
<line x1="198.7" y1="127.9" x2="107.9" y2="220.8" stroke="#5f8a4a" stroke-width="3" stroke-dasharray="7 4"/>
<line x1="195.2" y1="124.4" x2="175.9" y2="105.5" stroke="#999" stroke-width="0.8"/>
<line x1="104.3" y1="217.3" x2="85.0" y2="198.4" stroke="#999" stroke-width="0.8"/>
<line x1="179.4" y1="109.0" x2="88.6" y2="201.9" stroke="#2b5d8a" stroke-width="1.2"/>
<line x1="179.4" y1="103.4" x2="179.5" y2="114.7" stroke="#2b5d8a" stroke-width="1.2"/>
<line x1="88.5" y1="196.2" x2="88.6" y2="207.6" stroke="#2b5d8a" stroke-width="1.2"/>
<text x="128.3" y="149.9" text-anchor="middle" dominant-baseline="middle" fill="#2b5d8a" font-size="13" font-weight="bold" transform="rotate(-45.6 128.3 149.9)">104 cm · mur</text>
<line x1="107.0" y1="222.9" x2="107.0" y2="627.9" stroke="#5f8a4a" stroke-width="3" stroke-dasharray="7 4"/>
<line x1="102.0" y1="222.9" x2="75.0" y2="222.9" stroke="#999" stroke-width="0.8"/>
<line x1="102.0" y1="627.9" x2="75.0" y2="627.9" stroke="#999" stroke-width="0.8"/>
<line x1="80.0" y1="222.9" x2="80.0" y2="627.9" stroke="#2b5d8a" stroke-width="1.2"/>
<line x1="76.0" y1="218.9" x2="84.0" y2="226.9" stroke="#2b5d8a" stroke-width="1.2"/>
<line x1="76.0" y1="623.9" x2="84.0" y2="631.9" stroke="#2b5d8a" stroke-width="1.2"/>
<text x="72.0" y="425.4" text-anchor="middle" dominant-baseline="middle" fill="#2b5d8a" font-size="13" font-weight="bold" transform="rotate(90.0 72.0 425.4)">324 cm · mur</text>
<polyline points="421.4,334.2 419.4,336.7 417.8,339.4 416.6,342.4 415.8,345.5 415.5,348.6 415.7,351.8 416.3,354.9 417.3,357.9 418.8,360.8 420.7,363.3 422.9,365.6 425.5,367.5 428.2,369.1 431.2,370.2 434.3,370.9 437.5,371.1" fill="none" stroke="#b0452a" stroke-width="1.5"/>
<text x="397.2" y="370.7" text-anchor="middle" fill="#b0452a" font-size="12" font-weight="bold">132.8°</text>
<polyline points="185.5,145.7 187.1,147.2 188.9,148.5 190.8,149.6 192.8,150.5 194.9,151.2 197.0,151.7 199.2,151.9 201.4,152.0 203.6,151.8 205.8,151.4 207.9,150.9 209.9,150.0 211.9,149.0 213.7,147.8 215.5,146.5 217.0,144.9" fill="none" stroke="#b0452a" stroke-width="1.5"/>
<text x="202.0" y="178.0" text-anchor="middle" fill="#b0452a" font-size="12" font-weight="bold">91.6°</text>
<polyline points="110.0,244.9 113.2,244.6 116.4,243.9 119.4,242.7 122.3,241.1 124.8,239.1 127.1,236.8 128.9,234.1 130.4,231.2 131.4,228.1 131.9,224.9 132.0,221.6 131.5,218.4 130.7,215.3 129.3,212.3 127.5,209.6 125.4,207.2" fill="none" stroke="#b0452a" stroke-width="1.5"/>
<text x="150.7" y="243.5" text-anchor="middle" fill="#b0452a" font-size="12" font-weight="bold">135.6°</text>
<polygon points="125.0,621.6 431.2,621.6 431.2,420.0 125.0,229.0" fill="#cfe0f1" stroke="#2b5d8a" stroke-width="2.5"/>
<text x="278.1" y="607.6" text-anchor="middle" dominant-baseline="middle" fill="#2b5d8a" font-size="13" font-weight="bold" transform="rotate(0.0 278.1 607.6)">245</text>
<text x="417.2" y="520.8" text-anchor="middle" dominant-baseline="middle" fill="#2b5d8a" font-size="13" font-weight="bold" transform="rotate(-90.0 417.2 520.8)">161.3</text>
<text x="270.7" y="336.4" text-anchor="middle" dominant-baseline="middle" fill="#2b5d8a" font-size="13" font-weight="bold" transform="rotate(32.0 270.7 336.4)">288.7</text>
<text x="139.0" y="425.3" text-anchor="middle" dominant-baseline="middle" fill="#2b5d8a" font-size="13" font-weight="bold" transform="rotate(90.0 139.0 425.3)">314.1</text>
<polyline points="141.0,621.6 140.9,619.5 140.5,617.5 139.8,615.5 138.9,613.6 137.7,611.9 136.3,610.3 134.7,608.9 133.0,607.8 131.1,606.8 129.1,606.2 127.1,605.8 125.0,605.6" fill="none" stroke="#b0452a" stroke-width="1.2"/>
<polyline points="431.2,605.6 429.2,605.8 427.1,606.2 425.1,606.8 423.2,607.8 421.5,608.9 419.9,610.3 418.6,611.9 417.4,613.6 416.5,615.5 415.8,617.5 415.4,619.5 415.2,621.6" fill="none" stroke="#b0452a" stroke-width="1.2"/>
<polyline points="417.7,411.5 416.4,414.1 415.6,416.8 415.3,419.6 415.4,422.4 416.1,425.2 417.3,427.8 418.9,430.1 420.8,432.1 423.1,433.8 425.7,435.0 428.4,435.8 431.3,436.0" fill="none" stroke="#b0452a" stroke-width="1.2"/>
<text x="396.3" y="443.4" text-anchor="middle" fill="#b0452a" font-size="11" font-weight="bold">122.0°</text>
<polyline points="125.0,245.0 126.3,244.9 127.7,244.8 129.0,244.5 130.3,244.1 131.6,243.6 132.8,243.0 133.9,242.3 135.0,241.5 136.0,240.6 137.0,239.6 137.8,238.6 138.6,237.5" fill="none" stroke="#b0452a" stroke-width="1.2"/>
<text x="144.4" y="268.0" text-anchor="middle" fill="#b0452a" font-size="11" font-weight="bold">58.0°</text>
<line x1="306.2" y1="621.6" x2="431.2" y2="621.6" stroke="#c0392b" stroke-width="5"/>
<line x1="431.2" y1="621.6" x2="431.2" y2="746.6" stroke="#c0392b" stroke-width="2"/>
<polyline points="306.2,621.6 306.9,633.9 308.7,646.0 311.6,657.9 315.8,669.5 321.0,680.5 327.3,691.1 334.6,700.9 342.9,710.0 352.0,718.3 361.8,725.6 372.3,731.9 383.4,737.1 395.0,741.2 406.9,744.2 419.0,746.0 431.2,746.6" fill="none" stroke="#c0392b" stroke-width="1" stroke-dasharray="4 3"/>
<text x="368.8" y="639.6" text-anchor="middle" dominant-baseline="middle" fill="#c0392b" font-size="11" font-weight="bold">porte 100</text>
<line x1="403.9" y1="403.0" x2="437.5" y2="349.1" stroke="#2a8a4a" stroke-width="2.5"/>
<circle cx="403.9" cy="403.0" r="3" fill="#2a8a4a"/>
<text x="428.3" y="380.8" text-anchor="middle" dominant-baseline="middle" fill="#2a8a4a" font-size="11" font-weight="bold" transform="rotate(-58.0 428.3 380.8)">50.8</text>
<line x1="125.0" y1="229.0" x2="114.2" y2="218.5" stroke="#c0392b" stroke-width="2.5"/>
<circle cx="125.0" cy="229.0" r="3" fill="#c0392b"/>
<text x="113.3" y="230.2" text-anchor="middle" dominant-baseline="middle" fill="#c0392b" font-size="11" font-weight="bold" transform="rotate(44.3 113.3 230.2)">12</text>
<text x="278.1" y="473.1" text-anchor="middle" fill="#2b5d8a" font-size="22" font-weight="bold">5.82 m²</text>
<text x="278.1" y="491.1" text-anchor="middle" fill="#2b5d8a" font-size="12" font-weight="normal">intérieur 5.23 m²</text>
<text x="273.8" y="26.0" text-anchor="middle" fill="#222" font-size="15" font-weight="bold">Option 9 · trapèze, mur arrière en biais</text>
<text x="273.8" y="46.0" text-anchor="middle" fill="#2b5d8a" font-size="13" font-weight="bold">murs 5.82 m² · intérieur 5.23 m² · 4 côtés</text>
<text x="273.8" y="64.0" text-anchor="middle" fill="#666" font-size="11" font-weight="normal">côtés gauche et droit d'équerre sur l'avant, un seul mur en biais au fond</text>
<text x="273.8" y="776.9" text-anchor="middle" fill="#666" font-size="11" font-weight="normal">AVANT (jardin) · brun = palissade bois, vert pointillé = grillage</text>
<text x="273.8" y="790.9" text-anchor="middle" fill="#666" font-size="11" font-weight="normal">vert pointillé = zone utile · trait coloré = passage (cm)</text>
</svg>
