<svg xmlns="http://www.w3.org/2000/svg" viewBox="0 0 588 738" font-family="system-ui,sans-serif" font-size="13">
<rect width="588" height="738" fill="#fbfbf8"/>
<polygon points="110.0,627.9 437.5,627.9 437.5,349.1 200.9,130.0 110.0,222.9" fill="#e9e5da" stroke="#6f675a" stroke-width="2"/>
<line x1="110.0" y1="635.9" x2="110.0" y2="662.9" stroke="#999" stroke-width="0.8"/>
<line x1="437.5" y1="635.9" x2="437.5" y2="662.9" stroke="#999" stroke-width="0.8"/>
<line x1="110.0" y1="657.9" x2="437.5" y2="657.9" stroke="#2b5d8a" stroke-width="1.2"/>
<line x1="106.0" y1="661.9" x2="114.0" y2="653.9" stroke="#2b5d8a" stroke-width="1.2"/>
<line x1="433.5" y1="661.9" x2="441.5" y2="653.9" stroke="#2b5d8a" stroke-width="1.2"/>
<text x="273.8" y="665.9" text-anchor="middle" dominant-baseline="middle" fill="#2b5d8a" font-size="13" font-weight="bold" transform="rotate(0.0 273.8 665.9)">262 cm</text>
<line x1="445.5" y1="627.9" x2="472.5" y2="627.9" stroke="#999" stroke-width="0.8"/>
<line x1="445.5" y1="349.1" x2="472.5" y2="349.1" stroke="#999" stroke-width="0.8"/>
<line x1="467.5" y1="627.9" x2="467.5" y2="349.1" stroke="#2b5d8a" stroke-width="1.2"/>
<line x1="471.5" y1="631.9" x2="463.5" y2="623.9" stroke="#2b5d8a" stroke-width="1.2"/>
<line x1="471.5" y1="353.1" x2="463.5" y2="345.1" stroke="#2b5d8a" stroke-width="1.2"/>
<text x="475.5" y="488.5" text-anchor="middle" dominant-baseline="middle" fill="#2b5d8a" font-size="13" font-weight="bold" transform="rotate(-90.0 475.5 488.5)">223 cm</text>
<line x1="440.2" y1="346.2" x2="203.6" y2="127.1" stroke="#5b4a3a" stroke-width="6"/>
<line x1="442.9" y1="343.3" x2="461.3" y2="323.4" stroke="#999" stroke-width="0.8"/>
<line x1="206.3" y1="124.1" x2="224.7" y2="104.3" stroke="#999" stroke-width="0.8"/>
<line x1="457.9" y1="327.1" x2="221.3" y2="108.0" stroke="#2b5d8a" stroke-width="1.2"/>
<line x1="463.5" y1="326.9" x2="452.2" y2="327.3" stroke="#2b5d8a" stroke-width="1.2"/>
<line x1="226.9" y1="107.8" x2="215.6" y2="108.2" stroke="#2b5d8a" stroke-width="1.2"/>
<text x="345.0" y="211.7" text-anchor="middle" dominant-baseline="middle" fill="#2b5d8a" font-size="13" font-weight="bold" transform="rotate(42.8 345.0 211.7)">258 cm · mur</text>
<line x1="198.7" y1="127.9" x2="107.9" y2="220.8" stroke="#5f8a4a" stroke-width="3" stroke-dasharray="7 4"/>
<line x1="195.2" y1="124.4" x2="175.9" y2="105.5" stroke="#999" stroke-width="0.8"/>
<line x1="104.3" y1="217.3" x2="85.0" y2="198.4" stroke="#999" stroke-width="0.8"/>
<line x1="179.4" y1="109.0" x2="88.6" y2="201.9" stroke="#2b5d8a" stroke-width="1.2"/>
<line x1="179.4" y1="103.4" x2="179.5" y2="114.7" stroke="#2b5d8a" stroke-width="1.2"/>
<line x1="88.5" y1="196.2" x2="88.6" y2="207.6" stroke="#2b5d8a" stroke-width="1.2"/>
<text x="128.3" y="149.9" text-anchor="middle" dominant-baseline="middle" fill="#2b5d8a" font-size="13" font-weight="bold" transform="rotate(-45.6 128.3 149.9)">104 cm · mur</text>
<line x1="107.0" y1="222.9" x2="107.0" y2="627.9" stroke="#5f8a4a" stroke-width="3" stroke-dasharray="7 4"/>
<line x1="102.0" y1="222.9" x2="75.0" y2="222.9" stroke="#999" stroke-width="0.8"/>
<line x1="102.0" y1="627.9" x2="75.0" y2="627.9" stroke="#999" stroke-width="0.8"/>
<line x1="80.0" y1="222.9" x2="80.0" y2="627.9" stroke="#2b5d8a" stroke-width="1.2"/>
<line x1="76.0" y1="218.9" x2="84.0" y2="226.9" stroke="#2b5d8a" stroke-width="1.2"/>
<line x1="76.0" y1="623.9" x2="84.0" y2="631.9" stroke="#2b5d8a" stroke-width="1.2"/>
<text x="72.0" y="425.4" text-anchor="middle" dominant-baseline="middle" fill="#2b5d8a" font-size="13" font-weight="bold" transform="rotate(90.0 72.0 425.4)">324 cm · mur</text>
<polyline points="421.4,334.2 419.4,336.7 417.8,339.4 416.6,342.4 415.8,345.5 415.5,348.6 415.7,351.8 416.3,354.9 417.3,357.9 418.8,360.8 420.7,363.3 422.9,365.6 425.5,367.5 428.2,369.1 431.2,370.2 434.3,370.9 437.5,371.1" fill="none" stroke="#b0452a" stroke-width="1.5"/>
<text x="397.2" y="370.7" text-anchor="middle" fill="#b0452a" font-size="12" font-weight="bold">132.8°</text>
<polyline points="185.5,145.7 187.1,147.2 188.9,148.5 190.8,149.6 192.8,150.5 194.9,151.2 197.0,151.7 199.2,151.9 201.4,152.0 203.6,151.8 205.8,151.4 207.9,150.9 209.9,150.0 211.9,149.0 213.7,147.8 215.5,146.5 217.0,144.9" fill="none" stroke="#b0452a" stroke-width="1.5"/>
<text x="202.0" y="178.0" text-anchor="middle" fill="#b0452a" font-size="12" font-weight="bold">91.6°</text>
<polyline points="110.0,244.9 113.2,244.6 116.4,243.9 119.4,242.7 122.3,241.1 124.8,239.1 127.1,236.8 128.9,234.1 130.4,231.2 131.4,228.1 131.9,224.9 132.0,221.6 131.5,218.4 130.7,215.3 129.3,212.3 127.5,209.6 125.4,207.2" fill="none" stroke="#b0452a" stroke-width="1.5"/>
<text x="150.7" y="243.5" text-anchor="middle" fill="#b0452a" font-size="12" font-weight="bold">135.6°</text>
<polygon points="122.5,615.4 391.2,615.4 391.2,415.4 247.5,271.6 122.5,271.6" fill="none" stroke="#7a6f5a" stroke-width="1.2" stroke-dasharray="6 4"/>
<line x1="391.2" y1="615.4" x2="391.2" y2="415.4" stroke="#1b6fa8" stroke-width="4"/>
<line x1="391.2" y1="415.4" x2="247.5" y2="271.6" stroke="#1b6fa8" stroke-width="4"/>
<circle cx="391.2" cy="615.4" r="5" fill="#1b6fa8"/>
<defs><pattern id="cache" width="7" height="7" patternUnits="userSpaceOnUse" patternTransform="rotate(-45)"><line x1="0" y1="0" x2="0" y2="7" stroke="#6b8e23" stroke-width="1.6"/></pattern></defs>
<polygon points="372.5,288.9 200.9,130.0 153.9,178.0 372.5,396.6" fill="url(#cache)" stroke="#6b8e23" stroke-width="1"/>
<polygon points="353.8,271.6 200.9,130.0 110.0,222.9 110.0,271.6" fill="url(#cache)" stroke="#6b8e23" stroke-width="1"/>
<text x="206.9" y="185.8" text-anchor="middle" fill="#4f6b18" font-size="11" font-weight="bold">rangement caché</text>
<text x="206.9" y="198.8" text-anchor="middle" fill="#4f6b18" font-size="11" font-weight="bold">1.74 m²</text>
<polygon points="122.5,615.4 372.5,615.4 372.5,396.6 247.5,271.6 122.5,271.6" fill="#cfe0f1" stroke="#2b5d8a" stroke-width="2.5"/>
<text x="247.5" y="601.4" text-anchor="middle" dominant-baseline="middle" fill="#2b5d8a" font-size="13" font-weight="bold" transform="rotate(0.0 247.5 601.4)">200</text>
<text x="358.5" y="506.0" text-anchor="middle" dominant-baseline="middle" fill="#2b5d8a" font-size="13" font-weight="bold" transform="rotate(-90.0 358.5 506.0)">175</text>
<text x="300.1" y="344.0" text-anchor="middle" dominant-baseline="middle" fill="#2b5d8a" font-size="13" font-weight="bold" transform="rotate(45.0 300.1 344.0)">141.4</text>
<text x="185.0" y="285.6" text-anchor="middle" dominant-baseline="middle" fill="#2b5d8a" font-size="13" font-weight="bold" transform="rotate(0.0 185.0 285.6)">100</text>
<text x="136.5" y="443.5" text-anchor="middle" dominant-baseline="middle" fill="#2b5d8a" font-size="13" font-weight="bold" transform="rotate(90.0 136.5 443.5)">275</text>
<polyline points="138.5,615.4 138.4,613.3 138.0,611.2 137.3,609.3 136.4,607.4 135.2,605.6 133.8,604.1 132.2,602.7 130.5,601.5 128.6,600.6 126.6,599.9 124.6,599.5 122.5,599.4" fill="none" stroke="#b0452a" stroke-width="1.2"/>
<polyline points="372.5,599.4 370.4,599.5 368.4,599.9 366.4,600.6 364.5,601.5 362.8,602.7 361.2,604.1 359.8,605.6 358.6,607.4 357.7,609.3 357.0,611.2 356.6,613.3 356.5,615.4" fill="none" stroke="#b0452a" stroke-width="1.2"/>
<polyline points="361.2,385.3 359.2,387.7 357.7,390.5 356.8,393.5 356.5,396.6 356.8,399.7 357.7,402.7 359.2,405.5 361.2,407.9 363.6,409.9 366.4,411.4 369.4,412.3 372.5,412.6" fill="none" stroke="#b0452a" stroke-width="1.2"/>
<text x="335.5" y="415.9" text-anchor="middle" fill="#b0452a" font-size="11" font-weight="bold">135.0°</text>
<polyline points="231.5,271.6 231.8,274.7 232.7,277.7 234.2,280.5 236.2,282.9 238.6,284.9 241.4,286.4 244.4,287.3 247.5,287.6 250.6,287.3 253.6,286.4 256.4,284.9 258.8,282.9" fill="none" stroke="#b0452a" stroke-width="1.2"/>
<text x="232.2" y="312.6" text-anchor="middle" fill="#b0452a" font-size="11" font-weight="bold">135.0°</text>
<polyline points="122.5,287.6 124.6,287.5 126.6,287.1 128.6,286.4 130.5,285.5 132.2,284.3 133.8,282.9 135.2,281.4 136.4,279.6 137.3,277.7 138.0,275.8 138.4,273.7 138.5,271.6" fill="none" stroke="#b0452a" stroke-width="1.2"/>
<line x1="135.0" y1="615.4" x2="235.0" y2="615.4" stroke="#1b9aa8" stroke-width="6"/>
<text x="185.0" y="631.4" text-anchor="middle" fill="#1b9aa8" font-size="10" font-weight="bold">fen. 80×80 ouvr.</text>
<line x1="260.0" y1="615.4" x2="360.0" y2="615.4" stroke="#1b9aa8" stroke-width="6"/>
<text x="310.0" y="631.4" text-anchor="middle" fill="#1b9aa8" font-size="10" font-weight="bold">fen. 80×80 fixe</text>
<line x1="372.5" y1="518.5" x2="372.5" y2="512.2" stroke="#7a5530" stroke-width="7"/>
<line x1="372.5" y1="412.2" x2="372.5" y2="406.0" stroke="#7a5530" stroke-width="7"/>
<line x1="372.5" y1="512.2" x2="372.5" y2="412.2" stroke="#c0392b" stroke-width="5"/>
<line x1="372.5" y1="412.2" x2="472.5" y2="412.2" stroke="#c0392b" stroke-width="2"/>
<polyline points="372.5,512.2 382.3,511.8 392.0,510.3 401.5,507.9 410.8,504.6 419.6,500.4 428.1,495.4 435.9,489.6 443.2,483.0 449.8,475.7 455.6,467.8 460.7,459.4 464.9,450.5 468.2,441.3 470.6,431.8 472.0,422.1 472.5,412.2" fill="none" stroke="#c0392b" stroke-width="1" stroke-dasharray="4 3"/>
<text x="390.5" y="462.2" text-anchor="middle" dominant-baseline="middle" fill="#c0392b" font-size="11" font-weight="bold" transform="rotate(90.0 390.5 462.2)">porte 80</text>
<line x1="247.5" y1="271.6" x2="296.6" y2="218.6" stroke="#2a8a4a" stroke-width="2.5"/>
<circle cx="247.5" cy="271.6" r="3" fill="#2a8a4a"/>
<text x="278.7" y="251.2" text-anchor="middle" dominant-baseline="middle" fill="#2a8a4a" font-size="11" font-weight="bold" transform="rotate(-47.2 278.7 251.2)">57.8</text>
<line x1="122.5" y1="271.6" x2="110.0" y2="222.9" stroke="#c77d0a" stroke-width="2.5"/>
<circle cx="122.5" cy="271.6" r="3" fill="#c77d0a"/>
<text x="107.5" y="249.5" text-anchor="middle" dominant-baseline="middle" fill="#c77d0a" font-size="11" font-weight="bold" transform="rotate(75.6 107.5 249.5)">40.3</text>
<text x="247.5" y="434.1" text-anchor="middle" fill="#2b5d8a" font-size="22" font-weight="bold">5 m²</text>
<text x="247.5" y="452.1" text-anchor="middle" fill="#2b5d8a" font-size="12" font-weight="normal">intérieur 4.48 m²</text>
<polygon points="130.0,607.9 365.0,607.9 365.0,399.8 244.4,279.1 130.0,279.1" fill="none" stroke="#2b5d8a" stroke-width="1" stroke-dasharray="3 2"/>
<line x1="122.5" y1="615.4" x2="122.5" y2="627.9" stroke="#b86e1f" stroke-width="2"/>
<text x="130.5" y="625.6" text-anchor="start" fill="#b86e1f" font-size="11" font-weight="bold">10</text>
<line x1="372.5" y1="615.4" x2="437.5" y2="615.4" stroke="#b86e1f" stroke-width="2"/>
<text x="405.0" y="609.4" text-anchor="middle" fill="#b86e1f" font-size="11" font-weight="bold">52</text>
<line x1="122.5" y1="615.4" x2="110.0" y2="615.4" stroke="#b86e1f" stroke-width="2"/>
<text x="116.2" y="609.4" text-anchor="middle" fill="#b86e1f" font-size="11" font-weight="bold">10</text>
<text x="293.8" y="26.0" text-anchor="middle" fill="#222" font-size="15" font-weight="bold">Implantation sur la dalle · abri 5 m² sur 8.51 m² de dalle</text>
<text x="293.8" y="46.0" text-anchor="middle" fill="#888" font-size="11" font-weight="normal">brun = palissade bois, vert pointillé = grillage · orange = distance aux bords · vert = passage derrière · hachures = rangement caché</text>
<text x="293.8" y="725.9" text-anchor="middle" fill="#666" font-size="11" font-weight="normal">AVANT (jardin) · brun = palissade bois, vert pointillé = grillage</text>
</svg>
