<svg xmlns="http://www.w3.org/2000/svg" viewBox="0 0 565 719" width="565" height="719" font-family="system-ui,sans-serif" font-size="13">
<polygon points="108.0,610.6 456.8,610.6 456.8,324.5 108.0,108.0" fill="#8fa3b8" stroke="#2b5d8a" stroke-width="1.5"/>
<polygon points="117.6,601.0 447.2,601.0 447.2,329.8 117.6,125.3" fill="#fbfbf8" stroke="#2b5d8a" stroke-width="1.2"/>
<polygon points="117.6,601.0 213.6,601.0 213.6,184.8 117.6,125.3" fill="#e6c79c" stroke="#9a7040" stroke-width="1"/>
<text x="165.6" y="378.0" text-anchor="middle" dominant-baseline="middle" fill="#7a5530" font-size="12" font-weight="bold" transform="rotate(-90 165.6 378.0)">bureau 60 × 297.3</text>
<polygon points="117.6,601.0 447.2,601.0 447.2,521.0 117.6,521.0" fill="#e6c79c" stroke="#9a7040" stroke-width="1"/>
<text x="282.4" y="561.0" text-anchor="middle" dominant-baseline="middle" fill="#7a5530" font-size="12" font-weight="bold">bureau 50 × 206</text>
<polygon points="213.6,332.0 213.6,444.0 325.6,444.0 325.6,332.0" fill="#dcdce6" stroke="#55556a" stroke-width="1.2"/>
<text x="269.6" y="384.0" text-anchor="middle" fill="#44445a" font-size="10" font-weight="bold">fauteuil de bureau</text>
<text x="269.6" y="398.0" text-anchor="middle" fill="#44445a" font-size="9" font-weight="normal">70 × 70</text>
<polygon points="306.4,521.0 354.4,521.0 354.4,473.0 306.4,473.0" fill="#dcdce6" stroke="#55556a" stroke-width="1.2"/>
<text x="330.4" y="500.0" text-anchor="middle" fill="#44445a" font-size="8" font-weight="bold">tab.</text>
<polygon points="446.2,329.3 188.0,169.0 179.5,182.6 437.9,342.9" fill="#d9c8ec" stroke="#6a3d9a" stroke-width="1.5"/>
<rect x="422.9" y="313.6" width="6" height="6" fill="#6a3d9a"/>
<rect x="205.3" y="178.6" width="6" height="6" fill="#6a3d9a"/>
<polygon points="446.2,329.3 188.0,169.0 129.0,264.2 387.2,424.5" fill="none" stroke="#6a3d9a" stroke-width="1.8" stroke-dasharray="7 4"/>
<text x="385.7" y="355.6" text-anchor="middle" fill="#6a3d9a" font-size="10" font-weight="bold">lit rabattable 70 × 190</text>
<text x="385.7" y="368.6" text-anchor="middle" fill="#6a3d9a" font-size="9" font-weight="normal">pied sous le bureau</text>
<polygon points="268.0,610.6 428.0,610.6 428.0,601.0 268.0,601.0" fill="#bfe3ef" stroke="#1b9aa8" stroke-width="1.5"/>
<line x1="108.0" y1="614.6" x2="108.0" y2="642.6" stroke="#aaa" stroke-width="0.7"/>
<line x1="268.0" y1="614.6" x2="268.0" y2="642.6" stroke="#aaa" stroke-width="0.7"/>
<line x1="108.0" y1="638.6" x2="268.0" y2="638.6" stroke="#666" stroke-width="1"/>
<line x1="105.0" y1="641.6" x2="111.0" y2="635.6" stroke="#666" stroke-width="1"/>
<line x1="265.0" y1="641.6" x2="271.0" y2="635.6" stroke="#666" stroke-width="1"/>
<text x="188.0" y="646.6" text-anchor="middle" dominant-baseline="middle" fill="#666" font-size="10" font-weight="bold" transform="rotate(0.0 188.0 646.6)">100</text>
<line x1="268.0" y1="614.6" x2="268.0" y2="642.6" stroke="#aaa" stroke-width="0.7"/>
<line x1="428.0" y1="614.6" x2="428.0" y2="642.6" stroke="#aaa" stroke-width="0.7"/>
<line x1="268.0" y1="638.6" x2="428.0" y2="638.6" stroke="#666" stroke-width="1"/>
<line x1="265.0" y1="641.6" x2="271.0" y2="635.6" stroke="#666" stroke-width="1"/>
<line x1="425.0" y1="641.6" x2="431.0" y2="635.6" stroke="#666" stroke-width="1"/>
<text x="348.0" y="646.6" text-anchor="middle" dominant-baseline="middle" fill="#666" font-size="10" font-weight="bold" transform="rotate(0.0 348.0 646.6)">100</text>
<line x1="428.0" y1="614.6" x2="428.0" y2="642.6" stroke="#aaa" stroke-width="0.7"/>
<line x1="456.8" y1="614.6" x2="456.8" y2="642.6" stroke="#aaa" stroke-width="0.7"/>
<line x1="428.0" y1="638.6" x2="456.8" y2="638.6" stroke="#666" stroke-width="1"/>
<line x1="425.0" y1="641.6" x2="431.0" y2="635.6" stroke="#666" stroke-width="1"/>
<line x1="453.8" y1="641.6" x2="459.8" y2="635.6" stroke="#666" stroke-width="1"/>
<text x="442.4" y="646.6" text-anchor="middle" dominant-baseline="middle" fill="#666" font-size="10" font-weight="bold" transform="rotate(0.0 442.4 646.6)">18</text>
<line x1="108.0" y1="614.6" x2="108.0" y2="672.6" stroke="#aaa" stroke-width="0.7"/>
<line x1="456.8" y1="614.6" x2="456.8" y2="672.6" stroke="#aaa" stroke-width="0.7"/>
<line x1="108.0" y1="668.6" x2="456.8" y2="668.6" stroke="#2b5d8a" stroke-width="1"/>
<line x1="105.0" y1="671.6" x2="111.0" y2="665.6" stroke="#2b5d8a" stroke-width="1"/>
<line x1="453.8" y1="671.6" x2="459.8" y2="665.6" stroke="#2b5d8a" stroke-width="1"/>
<text x="282.4" y="676.6" text-anchor="middle" dominant-baseline="middle" fill="#2b5d8a" font-size="12" font-weight="bold" transform="rotate(0.0 282.4 676.6)">A · 218</text>
<polygon points="456.8,457.8 456.8,449.8 447.2,449.8 447.2,457.8" fill="#b98a55" stroke="#7a5530" stroke-width="1"/>
<polygon points="456.8,345.8 456.8,337.8 447.2,337.8 447.2,345.8" fill="#b98a55" stroke="#7a5530" stroke-width="1"/>
<polygon points="456.8,449.8 456.8,345.8 447.2,345.8 447.2,449.8" fill="#fbfbf8" stroke="#c0392b" stroke-width="1.5"/>
<line x1="456.8" y1="345.8" x2="560.8" y2="345.8" stroke="#c0392b" stroke-width="2"/>
<polyline points="456.8,449.8 467.0,449.3 477.1,447.8 487.0,445.3 496.6,441.8 505.8,437.5 514.6,432.2 522.8,426.2 530.3,419.3 537.2,411.7 543.3,403.5 548.5,394.8 552.9,385.6 556.3,375.9 558.8,366.0 560.3,356.0 560.8,345.8" fill="none" stroke="#c0392b" stroke-width="1" stroke-dasharray="4 3"/>
<line x1="460.8" y1="610.6" x2="488.8" y2="610.6" stroke="#aaa" stroke-width="0.7"/>
<line x1="460.8" y1="457.8" x2="488.8" y2="457.8" stroke="#aaa" stroke-width="0.7"/>
<line x1="484.8" y1="610.6" x2="484.8" y2="457.8" stroke="#666" stroke-width="1"/>
<line x1="487.8" y1="613.6" x2="481.8" y2="607.6" stroke="#666" stroke-width="1"/>
<line x1="487.8" y1="460.8" x2="481.8" y2="454.8" stroke="#666" stroke-width="1"/>
<text x="492.8" y="534.2" text-anchor="middle" dominant-baseline="middle" fill="#666" font-size="10" font-weight="bold" transform="rotate(-90.0 492.8 534.2)">95.5</text>
<line x1="460.8" y1="457.8" x2="488.8" y2="457.8" stroke="#aaa" stroke-width="0.7"/>
<line x1="460.8" y1="449.8" x2="488.8" y2="449.8" stroke="#aaa" stroke-width="0.7"/>
<line x1="484.8" y1="457.8" x2="484.8" y2="449.8" stroke="#666" stroke-width="1"/>
<line x1="487.8" y1="460.8" x2="481.8" y2="454.8" stroke="#666" stroke-width="1"/>
<line x1="487.8" y1="452.8" x2="481.8" y2="446.8" stroke="#666" stroke-width="1"/>
<text x="504.8" y="453.8" text-anchor="middle" dominant-baseline="middle" fill="#666" font-size="10" font-weight="bold" transform="rotate(-90.0 504.8 453.8)">5</text>
<line x1="460.8" y1="449.8" x2="488.8" y2="449.8" stroke="#aaa" stroke-width="0.7"/>
<line x1="460.8" y1="345.8" x2="488.8" y2="345.8" stroke="#aaa" stroke-width="0.7"/>
<line x1="484.8" y1="449.8" x2="484.8" y2="345.8" stroke="#666" stroke-width="1"/>
<line x1="487.8" y1="452.8" x2="481.8" y2="446.8" stroke="#666" stroke-width="1"/>
<line x1="487.8" y1="348.8" x2="481.8" y2="342.8" stroke="#666" stroke-width="1"/>
<text x="492.8" y="397.8" text-anchor="middle" dominant-baseline="middle" fill="#666" font-size="10" font-weight="bold" transform="rotate(-90.0 492.8 397.8)">65</text>
<line x1="460.8" y1="345.8" x2="488.8" y2="345.8" stroke="#aaa" stroke-width="0.7"/>
<line x1="460.8" y1="337.8" x2="488.8" y2="337.8" stroke="#aaa" stroke-width="0.7"/>
<line x1="484.8" y1="345.8" x2="484.8" y2="337.8" stroke="#666" stroke-width="1"/>
<line x1="487.8" y1="348.8" x2="481.8" y2="342.8" stroke="#666" stroke-width="1"/>
<line x1="487.8" y1="340.8" x2="481.8" y2="334.8" stroke="#666" stroke-width="1"/>
<text x="492.8" y="341.8" text-anchor="middle" dominant-baseline="middle" fill="#666" font-size="10" font-weight="bold" transform="rotate(-90.0 492.8 341.8)">5</text>
<line x1="460.8" y1="337.8" x2="488.8" y2="337.8" stroke="#aaa" stroke-width="0.7"/>
<line x1="460.8" y1="324.5" x2="488.8" y2="324.5" stroke="#aaa" stroke-width="0.7"/>
<line x1="484.8" y1="337.8" x2="484.8" y2="324.5" stroke="#666" stroke-width="1"/>
<line x1="487.8" y1="340.8" x2="481.8" y2="334.8" stroke="#666" stroke-width="1"/>
<line x1="487.8" y1="327.5" x2="481.8" y2="321.5" stroke="#666" stroke-width="1"/>
<text x="504.8" y="331.1" text-anchor="middle" dominant-baseline="middle" fill="#666" font-size="10" font-weight="bold" transform="rotate(-90.0 504.8 331.1)">8.3</text>
<line x1="460.8" y1="610.6" x2="518.8" y2="610.6" stroke="#aaa" stroke-width="0.7"/>
<line x1="460.8" y1="324.5" x2="518.8" y2="324.5" stroke="#aaa" stroke-width="0.7"/>
<line x1="514.8" y1="610.6" x2="514.8" y2="324.5" stroke="#2b5d8a" stroke-width="1"/>
<line x1="517.8" y1="613.6" x2="511.8" y2="607.6" stroke="#2b5d8a" stroke-width="1"/>
<line x1="517.8" y1="327.5" x2="511.8" y2="321.5" stroke="#2b5d8a" stroke-width="1"/>
<text x="522.8" y="467.5" text-anchor="middle" dominant-baseline="middle" fill="#2b5d8a" font-size="12" font-weight="bold" transform="rotate(-90.0 522.8 467.5)">D · 178.8</text>
<line x1="458.9" y1="321.1" x2="474.7" y2="295.6" stroke="#aaa" stroke-width="0.7"/>
<line x1="110.1" y1="104.6" x2="125.9" y2="79.1" stroke="#aaa" stroke-width="0.7"/>
<line x1="472.6" y1="299.0" x2="123.8" y2="82.5" stroke="#2b5d8a" stroke-width="1"/>
<line x1="476.8" y1="298.0" x2="468.5" y2="300.0" stroke="#2b5d8a" stroke-width="1"/>
<line x1="128.0" y1="81.5" x2="119.7" y2="83.5" stroke="#2b5d8a" stroke-width="1"/>
<text x="302.4" y="184.0" text-anchor="middle" dominant-baseline="middle" fill="#2b5d8a" font-size="12" font-weight="bold" transform="rotate(31.8 302.4 184.0)">B · 256.6</text>
<line x1="104.0" y1="108.0" x2="74.0" y2="108.0" stroke="#aaa" stroke-width="0.7"/>
<line x1="104.0" y1="610.6" x2="74.0" y2="610.6" stroke="#aaa" stroke-width="0.7"/>
<line x1="78.0" y1="108.0" x2="78.0" y2="610.6" stroke="#2b5d8a" stroke-width="1"/>
<line x1="75.0" y1="105.0" x2="81.0" y2="111.0" stroke="#2b5d8a" stroke-width="1"/>
<line x1="75.0" y1="607.6" x2="81.0" y2="613.6" stroke="#2b5d8a" stroke-width="1"/>
<text x="70.0" y="359.3" text-anchor="middle" dominant-baseline="middle" fill="#2b5d8a" font-size="12" font-weight="bold" transform="rotate(90.0 70.0 359.3)">G · 314.1</text>
<text x="216.5" y="589.0" text-anchor="middle" dominant-baseline="middle" fill="#888" font-size="10" transform="rotate(0.0 216.5 589.0)">int. 206</text>
<text x="435.2" y="519.6" text-anchor="middle" dominant-baseline="middle" fill="#888" font-size="10" transform="rotate(-90.0 435.2 519.6)">int. 169.5</text>
<text x="342.0" y="278.6" text-anchor="middle" dominant-baseline="middle" fill="#888" font-size="10" transform="rotate(31.8 342.0 278.6)">int. 242.4</text>
<text x="129.6" y="529.6" text-anchor="middle" dominant-baseline="middle" fill="#888" font-size="10" transform="rotate(90.0 129.6 529.6)">int. 297.3</text>
<text x="282.4" y="706.6" text-anchor="middle" fill="#666" font-size="12" font-weight="normal">AVANT (jardin)</text>
</svg>
